<?xml version="1.0" standalone="no"?>
<!DOCTYPE svg PUBLIC "-//W3C//DTD SVG 20010904//EN"
 "http://www.w3.org/TR/2001/REC-SVG-20010904/DTD/svg10.dtd">
<svg version="1.0" xmlns="http://www.w3.org/2000/svg"
 width="512.000000pt" height="512.000000pt" viewBox="0 0 512.000000 512.000000"
 preserveAspectRatio="xMidYMid meet">
<metadata>
Created by potrace 1.11, written by Peter Selinger 2001-2013
</metadata>
<g transform="translate(0.000000,512.000000) scale(0.100000,-0.100000)"
fill="#000000" stroke="none">
<path d="M2750 4642 c-76 -10 -202 -53 -330 -112 -80 -37 -170 -76 -200 -87
-105 -39 -173 -77 -216 -120 -24 -23 -44 -51 -45 -60 0 -10 -2 -25 -4 -33 -32
-128 -40 -193 -32 -271 4 -46 13 -97 20 -114 6 -16 12 -73 12 -125 0 -59 6
-107 15 -125 7 -16 14 -62 15 -102 2 -56 7 -77 24 -98 11 -15 21 -35 21 -44 0
-9 6 -23 13 -32 15 -20 57 -43 64 -35 3 3 13 1 23 -4 13 -7 17 -26 18 -99 2
-50 -2 -91 -7 -91 -5 0 -14 -13 -21 -29 -7 -18 -28 -37 -55 -51 -40 -20 -62
-52 -70 -100 -16 -91 -17 -91 -155 -134 -47 -15 -94 -30 -105 -35 -11 -5 -47
-19 -80 -30 -117 -40 -327 -129 -347 -147 -28 -26 -50 -72 -55 -115 -4 -28 2
-47 21 -76 14 -21 42 -76 61 -123 54 -128 54 -128 114 -161 102 -57 153 -102
221 -193 57 -77 74 -93 111 -106 l44 -15 53 -155 c72 -206 70 -197 36 -210
-16 -6 -38 -14 -49 -19 -11 -5 -46 -21 -77 -35 -76 -33 -76 -52 -3 -121 l55
-51 2 -262 1 -261 -29 -43 c-16 -24 -37 -50 -46 -58 -9 -8 -19 -31 -22 -50 -3
-19 -10 -51 -16 -70 -5 -19 -10 -44 -10 -55 0 -20 5 -20 882 -22 485 -1 885 0
888 2 10 6 -21 168 -35 185 -7 8 -28 44 -47 80 l-35 65 1 249 2 248 39 36 c45
41 80 116 61 130 -6 5 -58 24 -116 42 -125 39 -132 44 -124 79 12 49 64 161
75 161 4 0 41 25 83 56 57 43 84 72 112 121 21 35 60 92 88 126 38 47 56 82
77 150 15 48 30 100 32 115 3 15 10 54 16 87 20 107 20 220 1 263 -18 40 -66
86 -80 77 -16 -10 -114 34 -523 236 -157 78 -175 98 -118 131 38 21 55 81 47
164 -5 53 -4 63 15 80 17 15 20 26 15 56 -4 22 -2 39 5 43 6 4 8 13 6 19 -7
18 25 85 58 121 29 33 30 31 -7 163 l-23 82 28 50 c19 35 25 55 20 67 -5 10
-8 72 -7 139 1 90 5 128 17 150 50 90 71 145 75 191 4 47 2 55 -24 81 -19 18
-48 32 -86 40 -55 13 -56 14 -70 59 -16 55 -70 107 -127 123 -43 11 -148 18
-191 12z"/>
</g>
</svg>
